<svg xmlns="http://www.w3.org/2000/svg" viewBox="0 0 500 500" width="100%" height="100%" fill="none">
  <!-- LADO IZQUIERDO: CEREBRO -->
  <g stroke="#111111" stroke-width="12" stroke-linecap="round" stroke-linejoin="round">
    <path d="M 230,90 C 180,90 140,120 140,170 C 100,180 90,230 100,270 C 90,320 120,370 160,390 C 160,420 200,450 240,430" />
    <path d="M 230,140 C 190,140 180,180 200,200" />
    <path d="M 150,220 C 150,180 190,180 210,210" />
    <path d="M 180,250 C 140,260 160,310 200,300" />
    <path d="M 230,260 C 200,260 190,290 220,320" />
    <path d="M 155,330 C 135,360 185,410 210,370" />
    <path d="M 215,350 C 195,380 230,410 235,370" />

    <!-- Eje central -->
    <path d="M 245,110 L 245,150" stroke-width="10" />
    <path d="M 245,210 L 245,240" stroke-width="10" />
    <path d="M 245,300 L 245,340" stroke-width="10" />
  </g>

  <!-- LADO DERECHO: ENJAMBRE DE MARIPOSAS -->
  <g fill="#111111">
    <!-- 1. Mariposas Grandes -->
    <g transform="translate(260, 350) rotate(-10) scale(1.4)">
      <path d="M18,22 Q15,10 10,5 M19,22 Q22,10 27,5" fill="none" stroke="#111111" stroke-width="1.5" stroke-linecap="round" />
      <ellipse cx="18.5" cy="25" rx="2" ry="7" />
      <path d="M17,23 C10,15 -5,10 2,30 C6,42 14,35 17,27" />
      <path d="M17,27 C10,32 2,38 8,46 C14,52 18,40 17,31" />
      <path d="M20,23 C27,15 42,10 35,30 C31,42 23,35 20,27" />
      <path d="M20,27 C27,32 35,38 29,46 C23,52 19,40 20,31" />
    </g>

    <g transform="translate(320, 240) rotate(15) scale(1.1)">
      <path d="M18,22 Q14,11 8,7 M19,22 Q23,11 29,7" fill="none" stroke="#111111" stroke-width="1.5" stroke-linecap="round" />
      <ellipse cx="18.5" cy="25" rx="1.8" ry="6" />
      <path d="M17,23 C11,16 -3,11 3,29 C7,40 14,34 17,26 M17,26 C11,31 4,37 9,44 C14,50 18,39 17,30" />
      <path d="M20,23 C26,16 40,11 34,29 C30,40 23,34 20,26 M20,26 C26,31 33,37 28,44 C23,50 19,39 20,30" />
    </g>

    <g transform="translate(370, 260) rotate(-5) scale(1.05)">
      <ellipse cx="18.5" cy="25" rx="1.7" ry="5.5" />
      <path d="M17,23 C11,16 -3,11 3,29 C7,40 14,34 17,26 M17,26 C11,31 4,37 9,44 C14,50 18,39 17,30" />
      <path d="M20,23 C26,16 40,11 34,29 C30,40 23,34 20,26 M20,26 C26,31 33,37 28,44 C23,50 19,39 20,30" />
    </g>

    <g transform="translate(340, 130) rotate(-25) scale(0.95)">
      <path d="M18,22 Q14,11 8,7 M19,22 Q23,11 29,7" fill="none" stroke="#111111" stroke-width="1.2" stroke-linecap="round" />
      <ellipse cx="18.5" cy="25" rx="1.5" ry="5" />
      <path d="M17,23 C11,15 -4,9 2,28 C6,39 14,33 17,25 M17,25 C11,30 3,36 8,43 C13,49 17,38 17,29" />
      <path d="M20,23 C26,15 41,9 35,28 C31,39 23,33 20,25 M20,25 C26,30 34,36 29,43 C24,49 20,38 20,29" />
    </g>

    <!-- 2. Mariposas Medianas -->
    <g transform="translate(410, 195) rotate(35) scale(0.8)">
      <ellipse cx="18.5" cy="25" rx="1.5" ry="5" />
      <path d="M17,23 C11,15 -4,9 2,28 C6,39 14,33 17,25 M17,25 C11,30 3,36 8,43 C13,49 17,38 17,29" />
      <path d="M20,23 C26,15 41,9 35,28 C31,39 23,33 20,25 M20,25 C26,30 34,36 29,43 C24,49 20,38 20,29" />
    </g>

    <g transform="translate(295, 120) rotate(-15) scale(0.75)">
      <ellipse cx="18.5" cy="25" rx="1.3" ry="4.5" />
      <path d="M17,23 C11,15 -4,9 2,28 C6,39 14,33 17,25 M17,25 C11,30 3,36 8,43" />
      <path d="M20,23 C26,15 41,9 35,28 C31,39 23,33 20,25 M20,25 C26,30 34,36 29,43" />
    </g>

    <g transform="translate(275, 260) rotate(-45) scale(0.75)">
      <path d="M17,23 C11,15 -4,9 2,28 C6,39 14,33 17,25 M20,23 C26,15 41,9 35,28 C31,39 23,33 20,25" />
    </g>

    <!-- 3. Siluetas de Transición -->
    <g transform="translate(285, 190) rotate(-40) scale(0.68)">
      <path d="M17,23 C10,14 -5,8 2,28 C6,38 14,32 17,24 C20,32 28,38 32,28 C39,8 24,14 17,23 Z" />
    </g>
    <g transform="translate(345, 195) rotate(10) scale(0.65)">
      <path d="M17,23 C10,14 -5,8 2,28 C6,38 14,32 17,24 C20,32 28,38 32,28 C39,8 24,14 17,23 Z" />
    </g>
    <g transform="translate(320, 70) rotate(-15) scale(0.55)">
      <path d="M17,23 C10,14 -5,8 2,28 C6,38 14,32 17,24 C20,32 28,38 32,28 C39,8 24,14 17,23 Z" />
    </g>
    <g transform="translate(435, 145) rotate(20) scale(0.52)">
      <path d="M17,23 C10,14 -5,8 2,28 C6,38 14,32 17,24 C20,32 28,38 32,28 C39,8 24,14 17,23 Z" />
    </g>
    <g transform="translate(430, 245) rotate(45) scale(0.55)">
      <path d="M17,23 C10,14 -5,8 2,28 C6,38 14,32 17,24 C20,32 28,38 32,28 C39,8 24,14 17,23 Z" />
    </g>
    <g transform="translate(390, 320) rotate(10) scale(0.6)">
      <path d="M17,23 C10,14 -5,8 2,28 C6,38 14,32 17,24 C20,32 28,38 32,28 C39,8 24,14 17,23 Z" />
    </g>
    <g transform="translate(290, 325) rotate(-20) scale(0.5)">
      <path d="M17,23 C10,14 -5,8 2,28 C6,38 14,32 17,24 C20,32 28,38 32,28 C39,8 24,14 17,23 Z" />
    </g>
    <g transform="translate(370, 45) rotate(-50) scale(0.42)">
      <path d="M17,23 C10,14 -5,8 2,28 C6,38 14,32 17,24 C20,32 28,38 32,28 C39,8 24,14 17,23 Z" />
    </g>

    <!-- 4. Estela de Micro-partículas -->
    <path d="M395,35 L401,31 L403,37 L399,39 Z" />
    <path d="M420,55 L424,50 L428,54 L423,58 Z" />
    <path d="M455,95 L462,92 L461,99 L454,98 Z" />
    <path d="M465,120 L469,115 L472,121 L467,123 Z" />
    <path d="M360,95 L364,91 L367,96 L362,98 Z" />
    <path d="M395,115 L399,110 L402,116 L397,118 Z" />
    <path d="M340,180 L345,176 L347,182 L341,184 Z" />
    <path d="M380,165 L384,160 L387,166 L382,168 Z" />
    <path d="M460,180 L465,176 L468,181 L462,183 Z" />
    <path d="M450,225 L456,221 L458,227 L451,229 Z" />
    <path d="M425,295 L429,290 L432,296 L427,298 Z" />
  </g>
</svg>
